<svg xmlns="http://www.w3.org/2000/svg" viewBox="0 0 200.55 130.89"><defs><style>.cls-1{fill:#656f74;}.cls-2{fill:#dfebf1;}.cls-3{fill:#cadde8;}.cls-4{fill:#ffeca0;}.cls-5{fill:#807650;}.cls-6{fill:#ffdc4b;}.cls-7{fill:#407d96;}.cls-8{fill:#fff;}</style></defs><g id="Layer_2" data-name="Layer 2"><g id="Layer_1-2" data-name="Layer 1"><g id="Game_Menu" data-name="Game Menu"><rect class="cls-1" y="3.66" width="200.55" height="127.23" rx="12.1"/><rect class="cls-2" width="200.55" height="127.23" rx="12.1"/><rect class="cls-3" y="1.95" width="200.55" height="127.23" rx="12.1"/><g id="Menu"><rect class="cls-4" x="42.37" y="69.88" width="118.39" height="32.72" rx="9.65"/><rect class="cls-5" x="42.67" y="73.22" width="118.39" height="30.87" rx="9.38"/><rect class="cls-6" x="42.67" y="71.98" width="118.39" height="30.87" rx="9.38"/><path class="cls-7" d="M87.08,96.4A5.17,5.17,0,0,1,84.84,96a7.08,7.08,0,0,1-1.3.1A6.07,6.07,0,0,1,82.38,96a8.19,8.19,0,0,1-2.65.42H78.48a5.09,5.09,0,0,1-2-.31,2.89,2.89,0,0,1-1.85-2.7V83c0-.72.3-2.48,3-3.07a12.58,12.58,0,0,1,2.71-.28,5.66,5.66,0,0,1,3,.65,4.09,4.09,0,0,1,.59.43,5.18,5.18,0,0,1,1.25-.6,8.82,8.82,0,0,1,3-.48,8.36,8.36,0,0,1,2.49.3,3,3,0,0,1,2.3,2.87V93.39c0,.9-.41,2.47-3.12,2.85A18.41,18.41,0,0,1,87.08,96.4Z"/><path class="cls-7" d="M96.88,96.56a11.64,11.64,0,0,1-2.68-.26,7.63,7.63,0,0,1-2.06-.77,6.65,6.65,0,0,1-2.57-2.69,6.69,6.69,0,0,1-.5-1.43,9.52,9.52,0,0,1-.23-2.07c0-2.85.88-4.93,2.61-6.18a7.09,7.09,0,0,1,2.62-1.22,12.28,12.28,0,0,1,2.85-.3c6.21,0,6.7,4.15,6.7,5.43a5.48,5.48,0,0,1-1.05,3.23,5.17,5.17,0,0,1,.73,2.43c0,.79-.31,2.7-3.23,3.43A13.09,13.09,0,0,1,96.88,96.56Z"/><path class="cls-7" d="M109.12,96.4a6.77,6.77,0,0,1-2-.21l-.26-.09a7.1,7.1,0,0,1-.95.17,17.51,17.51,0,0,1-2.21.13,7.12,7.12,0,0,1-2-.2,2.84,2.84,0,0,1-2.09-2.73V85.36c0-1,.45-2.29,2.61-3.07a8.37,8.37,0,0,1,2.87-.5,4.42,4.42,0,0,1,1.76.33,5.2,5.2,0,0,1,.55-.21,6.25,6.25,0,0,1,1.84-.27,4.83,4.83,0,0,1,4.43,2.24,8.89,8.89,0,0,1,.93,4.52v5.07c0,.91-.42,2.49-3.18,2.8A18.06,18.06,0,0,1,109.12,96.4Z"/><path class="cls-7" d="M116.46,96.55a5.42,5.42,0,0,1-4.59-2,7.79,7.79,0,0,1-1.25-4.87V85.26c0-1,.47-2.34,2.74-3.05a9.31,9.31,0,0,1,2.8-.42,4.75,4.75,0,0,1,2.38.55l.49-.16a10.57,10.57,0,0,1,2.92-.39c3,0,3.74,2,3.74,3.17v8.48c0,.94-.43,2.57-3.33,2.85-.77.07-1.53.11-2.28.11a5.1,5.1,0,0,1-1.58-.22l-.19.07A5.56,5.56,0,0,1,116.46,96.55Z"/><path class="cls-8" d="M79.67,93.87H78.48a3.07,3.07,0,0,1-1.06-.12.38.38,0,0,1-.28-.36V83c0-.25.33-.45,1-.6a10,10,0,0,1,2.16-.22,3.35,3.35,0,0,1,1.65.3,1.07,1.07,0,0,1,.57.62l1.12,4.35h.15l1.06-4.15c.07-.3.43-.56,1.07-.78a6.29,6.29,0,0,1,2.12-.34,5.89,5.89,0,0,1,1.7.18c.37.12.55.28.55.46V93.39c0,.14-.31.26-.93.34a16.4,16.4,0,0,1-2.29.14q-1.35,0-1.35-.48c0-.87.09-2.41.28-4.63h-.15L85,93.06c0,.16-.16.28-.4.36a3.54,3.54,0,0,1-1.06.12,2.33,2.33,0,0,1-.87-.1.54.54,0,0,1-.2-.38l-.89-4.3h-.15c.2,2.26.3,3.81.3,4.63C81.73,93.67,81,93.83,79.67,93.87Z"/><path class="cls-8" d="M95.87,90.15c0,.71.34,1.07,1,1.07a4.2,4.2,0,0,0,1.54-.41c.64-.27,1-.4,1-.4.21,0,.48.31.82.94a3.35,3.35,0,0,1,.51,1.38c0,.43-.44.75-1.31,1a10.62,10.62,0,0,1-2.58.33,9.62,9.62,0,0,1-2.11-.2,5.35,5.35,0,0,1-1.38-.5,3.61,3.61,0,0,1-.94-.75,3.51,3.51,0,0,1-.6-.85,4.22,4.22,0,0,1-.31-.89,6.76,6.76,0,0,1-.17-1.5c0-2,.52-3.38,1.57-4.13a4.67,4.67,0,0,1,1.73-.81,9.8,9.8,0,0,1,2.25-.23c2.78,0,4.16,1,4.16,2.9s-1.55,3.08-4.67,3.08Zm0-2.41v1.09a1,1,0,0,0,.79-.38,1.43,1.43,0,0,0,.3-.92q0-1-.51-1C96,86.54,95.83,86.94,95.83,87.74Z"/><path class="cls-8" d="M112,88.4v5.07c0,.12-.32.22-.94.29a17.45,17.45,0,0,1-1.94.11,5.5,5.5,0,0,1-1.28-.09c-.19-.07-.29-.17-.29-.31V88.24a4.76,4.76,0,0,0-.06-1c0-.16-.07-.3-.1-.42a.43.43,0,0,0-.41-.31.4.4,0,0,0-.46.45v6.48c0,.12-.31.22-.93.29a17.27,17.27,0,0,1-1.93.11,5.67,5.67,0,0,1-1.29-.09c-.2-.07-.3-.17-.3-.31V85.36c0-.23.32-.46,1-.7a5.8,5.8,0,0,1,2-.34c.7,0,1.09.2,1.18.61l.15.72h.12a2.62,2.62,0,0,1,1.64-1.33,3.53,3.53,0,0,1,1.06-.15,2.37,2.37,0,0,1,2.24,1A6.65,6.65,0,0,1,112,88.4Z"/><path class="cls-8" d="M116.46,94a3.06,3.06,0,0,1-2.58-1,5.65,5.65,0,0,1-.73-3.33V85.26c0-.22.32-.43,1-.64a6.9,6.9,0,0,1,2-.3c1,0,1.43.25,1.43.74v4.18a12.67,12.67,0,0,0,.1,1.82c.07.38.23.57.5.57s.52-.15.52-.45V85.26c0-.23.34-.45,1-.64a7.84,7.84,0,0,1,2.22-.3c.81,0,1.21.21,1.21.64v8.48c0,.15-.35.26-1,.33s-1.37.1-2,.1-1-.09-1-.27l-.17-1.07h-.13a1.77,1.77,0,0,1-.59,1,2.23,2.23,0,0,1-.68.36A3.33,3.33,0,0,1,116.46,94Z"/></g><g id="New_Game" data-name="New Game"><rect class="cls-4" x="42.52" y="26.54" width="118.39" height="32.72" rx="9.65"/><rect class="cls-5" x="42.83" y="29.89" width="118.39" height="30.87" rx="9.38"/><rect class="cls-6" x="42.83" y="28.64" width="118.39" height="30.87" rx="9.38"/><path class="cls-7" d="M62.86,53a5.18,5.18,0,0,1-2.34-.45,5.75,5.75,0,0,1-1.28.3A18.5,18.5,0,0,1,56.9,53a5.76,5.76,0,0,1-2.25-.3A2.89,2.89,0,0,1,52.8,50V39.93c0-.82.34-2.31,2.61-3.14a8.82,8.82,0,0,1,3-.5,6.19,6.19,0,0,1,1,.07A3.32,3.32,0,0,1,61,37a5.29,5.29,0,0,1,.53-.22,8.53,8.53,0,0,1,3-.51A3.89,3.89,0,0,1,68,37.76a3.38,3.38,0,0,1,.66,2V50c0,.91-.42,2.49-3.22,2.85A20.12,20.12,0,0,1,62.86,53Z"/><path class="cls-7" d="M72.67,53.21A12.29,12.29,0,0,1,70,53a7.63,7.63,0,0,1-2.06-.77,6.55,6.55,0,0,1-1.56-1.25,6.35,6.35,0,0,1-1-1.44,7.1,7.1,0,0,1-.5-1.43A9,9,0,0,1,64.64,46c0-2.85.87-4.93,2.61-6.18a7.12,7.12,0,0,1,2.61-1.22,12.37,12.37,0,0,1,2.86-.3c6.21,0,6.69,4.15,6.69,5.42a5.46,5.46,0,0,1-1,3.24,5.25,5.25,0,0,1,.73,2.43c0,.78-.32,2.69-3.24,3.42A13,13,0,0,1,72.67,53.21Z"/><path class="cls-7" d="M88.13,53a7.92,7.92,0,0,1-2.79-.37,11.16,11.16,0,0,1-3.51.37A5.46,5.46,0,0,1,80,52.81a3.1,3.1,0,0,1-1.81-1.63c-3.3-8.09-3.3-8.35-3.3-9,0-1.45,1-2.53,2.89-3.2a9.26,9.26,0,0,1,3.13-.57,4.36,4.36,0,0,1,2.87.9,7.16,7.16,0,0,1,2-.3,5.73,5.73,0,0,1,1.9.27,5.93,5.93,0,0,1,1.08-.44,9,9,0,0,1,2.6-.43,5.32,5.32,0,0,1,2.4.5,3.42,3.42,0,0,1,2.16,3.12c0,.51,0,.51-1.65,4.91a45,45,0,0,1-1.73,4.44C91.59,53,89.43,53,88.13,53Z"/><path class="cls-7" d="M101.4,53.18A7.14,7.14,0,0,1,99.77,53a5.33,5.33,0,0,1-1.87-.89,5.67,5.67,0,0,1-1.59-1.74,10.62,10.62,0,0,1-1.18-5.46,10.6,10.6,0,0,1,.56-3.54,7.34,7.34,0,0,1,1.6-2.73A7.55,7.55,0,0,1,99.53,37a8.89,8.89,0,0,1,2.3-.74,12,12,0,0,1,2-.16,10,10,0,0,1,3.76.53A3.81,3.81,0,0,1,110,40.29a8.09,8.09,0,0,1-.4,2.4c-.06.18-.12.34-.19.5a1.59,1.59,0,0,1,.2.24,3.22,3.22,0,0,1,.71,2V50c0,.72-.29,2.44-3,2.85a14.07,14.07,0,0,1-2.18.16,6.5,6.5,0,0,1-1.84-.18A4.83,4.83,0,0,1,101.4,53.18Z"/><path class="cls-7" d="M112,53.19a6,6,0,0,1-4-1.29,4.87,4.87,0,0,1-1.3-1.79,5.91,5.91,0,0,1-.47-2.38A5,5,0,0,1,107,45c.12-.18.25-.36.38-.52a4.85,4.85,0,0,1-.56-2.19,3.17,3.17,0,0,1,1.89-2.76,9.4,9.4,0,0,1,2.34-.89,11.38,11.38,0,0,1,2.8-.36,10.64,10.64,0,0,1,2.37.23,7.91,7.91,0,0,1,1.84.63,5.25,5.25,0,0,1,1.64,1.31,8.31,8.31,0,0,1,.79,1.17,5.18,5.18,0,0,1,.52,1.64,10.9,10.9,0,0,1,.14,1.89v5c0,.73-.3,2.46-3.11,2.8A17.62,17.62,0,0,1,116,53,8.18,8.18,0,0,1,114.4,53l-.43-.1A5.79,5.79,0,0,1,112,53.19Z"/><path class="cls-7" d="M131.91,53a7.21,7.21,0,0,1-2-.19l-.2-.07a6.07,6.07,0,0,1-.82.14,20,20,0,0,1-2.23.12,6.76,6.76,0,0,1-2-.2l-.19-.07a4.86,4.86,0,0,1-.84.15,20,20,0,0,1-2.22.12,6.85,6.85,0,0,1-2-.2,2.84,2.84,0,0,1-2.06-2.72V42c0-1,.45-2.28,2.61-3.07a8.33,8.33,0,0,1,2.87-.5,4.32,4.32,0,0,1,1.74.33c.14-.07.28-.12.43-.18a6.37,6.37,0,0,1,2-.29,4.64,4.64,0,0,1,2.35.6,6.26,6.26,0,0,1,2.72-.6,4.72,4.72,0,0,1,4.41,2.3,9.18,9.18,0,0,1,.89,4.49v5c0,.91-.41,2.48-3.18,2.8A19.65,19.65,0,0,1,131.91,53Z"/><path class="cls-7" d="M141.26,53.21a12.22,12.22,0,0,1-2.68-.26,7.51,7.51,0,0,1-2.06-.77A6.6,6.6,0,0,1,135,50.93a6.29,6.29,0,0,1-1-1.44,6.55,6.55,0,0,1-.51-1.43,9.59,9.59,0,0,1-.23-2.07c0-2.85.88-4.93,2.61-6.18a7.09,7.09,0,0,1,2.62-1.22,12.28,12.28,0,0,1,2.85-.3c6.21,0,6.7,4.15,6.7,5.42A5.49,5.49,0,0,1,147,47a5.13,5.13,0,0,1,.73,2.43c0,.78-.31,2.69-3.23,3.42A13.11,13.11,0,0,1,141.26,53.21Z"/><path class="cls-8" d="M58.91,50.38a15.07,15.07,0,0,1-2,.13,4.7,4.7,0,0,1-1.29-.11.4.4,0,0,1-.28-.36V39.93c0-.28.32-.53,1-.76a6.26,6.26,0,0,1,2.15-.34,5,5,0,0,1,.64,0,1,1,0,0,1,.79.71l1.58,4.24h.07V39.93c0-.28.31-.53.93-.76a6.2,6.2,0,0,1,2.14-.34c.7,0,1.13.13,1.32.39a1,1,0,0,1,.2.51V50c0,.14-.34.25-1,.34a17.06,17.06,0,0,1-2.23.13c-.8,0-1.24-.1-1.32-.31L60,46.15h-.08V50C59.93,50.18,59.59,50.29,58.91,50.38Z"/><path class="cls-8" d="M71.66,46.79c0,.72.34,1.07,1,1.07a4.2,4.2,0,0,0,1.55-.4c.64-.27,1-.4,1-.4.21,0,.49.31.83.93a3.43,3.43,0,0,1,.51,1.39c0,.42-.44.75-1.32,1a10.62,10.62,0,0,1-2.58.33,9.46,9.46,0,0,1-2.1-.2,5.3,5.3,0,0,1-1.39-.5,4,4,0,0,1-.93-.75,3.71,3.71,0,0,1-.6-.85,4,4,0,0,1-.32-.9A6.67,6.67,0,0,1,67.17,46c0-2,.52-3.38,1.56-4.13a4.58,4.58,0,0,1,1.73-.81,9.42,9.42,0,0,1,2.26-.23q4.16,0,4.16,2.89c0,2.06-1.56,3.08-4.67,3.08Zm0-2.4v1.09a1,1,0,0,0,.78-.38,1.44,1.44,0,0,0,.31-.92c0-.66-.18-1-.51-1S71.63,43.59,71.63,44.39Z"/><path class="cls-8" d="M90.36,50.12c-.14.26-.89.39-2.23.39s-2-.13-2.1-.39l-.56-3h-.23l-.53,3q0,.39-2.88.39a3.81,3.81,0,0,1-1-.09.61.61,0,0,1-.36-.3q-3.06-7.53-3.06-7.92t1.2-.81A6.87,6.87,0,0,1,80.86,41c1,0,1.43.25,1.47.75l.56,4.51h.19l.2-3.63c0-.28.29-.52.84-.73a4.6,4.6,0,0,1,1.66-.31,3.11,3.11,0,0,1,1.26.2c.28.14.43.31.44.51l.18,4h.18L88.38,42c0-.26.41-.5,1.12-.71A6.31,6.31,0,0,1,91.36,41a2.8,2.8,0,0,1,1.27.23c.51.24.76.52.76.85,0,0-.5,1.37-1.49,4S90.39,50.06,90.36,50.12Z"/><path class="cls-8" d="M101.4,50.64a4.17,4.17,0,0,1-1-.11,3.19,3.19,0,0,1-1.88-1.47,8.3,8.3,0,0,1-.82-4.16,8,8,0,0,1,.41-2.7,4.56,4.56,0,0,1,2.53-2.88,6.29,6.29,0,0,1,1.63-.53,9.21,9.21,0,0,1,1.61-.13,7.9,7.9,0,0,1,2.79.34,1.27,1.27,0,0,1,.8,1.29,5.33,5.33,0,0,1-.28,1.64c-.18.59-.46.88-.82.88a10.22,10.22,0,0,1-1.12-.26,6.48,6.48,0,0,0-1.48-.25c-.94,0-1.42.8-1.42,2.39a3.73,3.73,0,0,0,.33,1.78,1.14,1.14,0,0,0,.83.65V45.64c0-.27.28-.53.84-.76a4.2,4.2,0,0,1,1.61-.34,4.47,4.47,0,0,1,1.13.1.85.85,0,0,1,.48.28.84.84,0,0,1,.23.52V50c0,.15-.29.26-.86.35a11.73,11.73,0,0,1-1.8.13,4.44,4.44,0,0,1-1.17-.09c-.17-.06-.26-.23-.28-.5l-.12-1h-.13a2.33,2.33,0,0,1-.58,1.21A1.86,1.86,0,0,1,101.4,50.64Z"/><path class="cls-8" d="M112,50.66a3.58,3.58,0,0,1-2.35-.71,2.38,2.38,0,0,1-.6-.87,3.28,3.28,0,0,1-.26-1.35,2.42,2.42,0,0,1,.37-1.35,2.83,2.83,0,0,1,.9-.89,4.94,4.94,0,0,1,1.23-.51,9.67,9.67,0,0,1,2.36-.28h.54a1,1,0,0,0-.46-1,1.17,1.17,0,0,0-.6-.12,2.65,2.65,0,0,0-1,.22,5.75,5.75,0,0,0-.95.43,1.29,1.29,0,0,1-.51.22q-.3,0-.81-.78a2.65,2.65,0,0,1-.51-1.42c0-.14.21-.33.61-.56a7.32,7.32,0,0,1,1.72-.63,8.26,8.26,0,0,1,2.17-.29,8.63,8.63,0,0,1,1.81.17,6,6,0,0,1,1.26.42,2.63,2.63,0,0,1,.82.66,5,5,0,0,1,.51.74,2.76,2.76,0,0,1,.25.86,7.79,7.79,0,0,1,.12,1.49v5c0,.12-.29.21-.88.29a14.79,14.79,0,0,1-1.75.1,6.6,6.6,0,0,1-1.11,0,.56.56,0,0,1-.31-.11.67.67,0,0,1-.08-.23l-.13-.94h-.14A2,2,0,0,1,112,50.66Zm2.21-2.73V46a.83.83,0,0,0-.7.36,1.43,1.43,0,0,0-.26.83c0,.72.17,1.08.49,1.08a.49.49,0,0,0,.34-.1A.33.33,0,0,0,114.18,47.93Z"/><path class="cls-8" d="M134.77,45.08v5c0,.12-.31.21-.93.29a17.31,17.31,0,0,1-1.93.1,5.67,5.67,0,0,1-1.29-.09q-.3-.09-.3-.3V45.56c0-1.57-.16-2.36-.48-2.36a.42.42,0,0,0-.23.1.47.47,0,0,0-.11.35v6.47c0,.12-.31.21-.93.29a17.36,17.36,0,0,1-1.94.1,5.6,5.6,0,0,1-1.29-.09c-.19-.06-.29-.16-.29-.3V45.56a5.58,5.58,0,0,0-.23-2.19.34.34,0,0,0-.29-.17c-.21,0-.31.15-.31.45v6.47c0,.12-.32.21-.94.29a17.49,17.49,0,0,1-1.94.1,5.5,5.5,0,0,1-1.28-.09c-.19-.06-.29-.16-.29-.3V42c0-.23.32-.46,1-.69a5.76,5.76,0,0,1,2-.34c.7,0,1.09.2,1.18.61l.15.72h.12A2.64,2.64,0,0,1,125.75,41a3.85,3.85,0,0,1,1.18-.15A2.19,2.19,0,0,1,129,42.3a2.42,2.42,0,0,1,1.07-1,3.7,3.7,0,0,1,1.89-.49,2.3,2.3,0,0,1,2.2,1A6.94,6.94,0,0,1,134.77,45.08Z"/><path class="cls-8" d="M140.25,46.79c0,.72.34,1.07,1,1.07a4.15,4.15,0,0,0,1.54-.4c.64-.27,1-.4,1-.4.21,0,.48.31.82.93a3.43,3.43,0,0,1,.51,1.39c0,.42-.44.75-1.32,1a10.48,10.48,0,0,1-2.57.33,9.62,9.62,0,0,1-2.11-.2,5.35,5.35,0,0,1-1.38-.5,3.83,3.83,0,0,1-.94-.75,3.71,3.71,0,0,1-.6-.85,4,4,0,0,1-.31-.9,6.67,6.67,0,0,1-.17-1.49c0-2,.52-3.38,1.57-4.13a4.54,4.54,0,0,1,1.72-.81,9.42,9.42,0,0,1,2.26-.23c2.78,0,4.16,1,4.16,2.89s-1.55,3.08-4.67,3.08Zm0-2.4v1.09a1,1,0,0,0,.79-.38,1.43,1.43,0,0,0,.3-.92q0-1-.51-1C140.41,43.19,140.21,43.59,140.21,44.39Z"/></g></g></g></g></svg>